<?xml version="1.0" encoding="UTF-8"?>
<svg version="1.1" xmlns="http://www.w3.org/2000/svg" width="1024" height="1024">
<path d="M0 0 C1.73163002 -0.00258775 3.46325944 -0.00560204 5.19488806 -0.0090034 C9.93130641 -0.01702905 14.66770957 -0.01886049 19.40413392 -0.01960087 C24.52173586 -0.02145927 29.63933006 -0.02901069 34.75692749 -0.03573608 C45.93948232 -0.04929 57.12203355 -0.05533999 68.30459523 -0.05974674 C75.29755113 -0.06251505 82.29050565 -0.06675355 89.28346062 -0.07125092 C108.67351857 -0.08344145 128.06357542 -0.09374008 147.45363712 -0.09712601 C149.31349463 -0.09745536 149.31349463 -0.09745536 151.21092501 -0.09779136 C152.45368202 -0.09800964 153.69643903 -0.09822791 154.97685534 -0.09845281 C157.49485974 -0.09889626 160.01286413 -0.09934282 162.53086853 -0.09979248 C164.4043668 -0.10012463 164.4043668 -0.10012463 166.31571352 -0.10046348 C186.52476096 -0.10440605 206.73377223 -0.12184453 226.94280571 -0.145152 C247.72872903 -0.16892968 268.51463425 -0.18133083 289.30057138 -0.18249393 C300.95572184 -0.18340727 312.6108252 -0.18907293 324.2659626 -0.20731354 C334.19688132 -0.22280161 344.12773838 -0.22778421 354.05866689 -0.21957543 C359.11505116 -0.21569905 364.1713116 -0.21644885 369.22768021 -0.23063278 C394.37215987 -0.29713871 419.06545611 0.18824294 443.76890564 5.51544189 C444.79572449 5.73039307 445.82254333 5.94534424 446.88047791 6.16680908 C449.86923596 6.80385281 452.85121875 7.46453386 455.83140564 8.14044189 C456.66156189 8.32832275 457.49171814 8.51620361 458.34703064 8.70977783 C507.95820043 20.22959002 557.68442318 44.97086534 594.83140564 80.14044189 C596.1795346 81.33479189 597.53354076 82.52254747 598.89390564 83.70294189 C599.53328064 84.26239502 600.17265564 84.82184814 600.83140564 85.39825439 C602.24308606 86.62796039 603.66029699 87.85133135 605.08140564 89.07012939 C609.32021462 92.75044665 613.17095903 96.4956911 616.78453064 100.78887939 C618.36122573 102.60027338 619.95941034 104.33133486 621.62828064 106.05450439 C644.16007122 129.42328048 662.10123882 157.79988305 675.83140564 187.14044189 C676.21119568 187.94304443 676.59098572 188.74564697 676.98228455 189.5725708 C691.88681839 221.38051476 700.83941838 255.27185529 704.83140564 290.14044189 C704.9634899 291.25916605 704.9634899 291.25916605 705.09824252 292.4004907 C706.0047729 301.03214187 705.97705826 309.64255966 705.97184753 318.30903625 C705.97443528 320.04066627 705.97744957 321.7722957 705.98085093 323.50392431 C705.98887659 328.24034266 705.99070802 332.97674582 705.9914484 337.71317017 C705.99330681 342.83077211 706.00085823 347.94836632 706.00758362 353.06596375 C706.02113753 364.24851858 706.02718752 375.43106981 706.03159428 386.61363149 C706.03436259 393.60658738 706.03860109 400.59954191 706.04309845 407.59249687 C706.05528899 426.98255482 706.06558761 446.37261168 706.06897354 465.76267338 C706.06919311 467.00257838 706.06941267 468.24248338 706.06963889 469.51996126 C706.06985717 470.76271827 706.07007545 472.00547528 706.07030034 473.28589159 C706.0707438 475.80389599 706.07119036 478.32190039 706.07164001 480.83990479 C706.07186144 482.08890363 706.07208287 483.33790248 706.07231101 484.62474977 C706.07625359 504.83379722 706.09369206 525.04280848 706.11699954 545.25184197 C706.14077722 566.03776529 706.15317836 586.82367051 706.15434146 607.60960764 C706.1552548 619.2647581 706.16092046 630.91986145 706.17916107 642.57499886 C706.19464915 652.50591757 706.19963175 662.43677463 706.19142297 672.36770315 C706.18754658 677.42408741 706.18829639 682.48034786 706.20248032 687.53671646 C706.26898625 712.68119612 705.78360459 737.37449236 700.45640564 762.07794189 C700.24145447 763.10476074 700.0265033 764.13157959 699.80503845 765.18951416 C699.16799473 768.17827221 698.50731368 771.160255 697.83140564 774.14044189 C697.64352478 774.97059814 697.45564392 775.80075439 697.2620697 776.65606689 C685.74225751 826.26723668 661.00098219 875.99345943 625.83140564 913.14044189 C624.63705565 914.48857086 623.44930007 915.84257702 622.26890564 917.20294189 C621.42972595 918.16200439 621.42972595 918.16200439 620.57359314 919.14044189 C619.34388715 920.55212232 618.12051618 921.96933325 616.90171814 923.39044189 C613.22140088 927.62925088 609.47615643 931.47999528 605.18296814 935.09356689 C603.37157416 936.67026199 601.64051267 938.26844659 599.91734314 939.93731689 C576.54856705 962.46910747 548.17196449 980.41027507 518.83140564 994.14044189 C518.0288031 994.52023193 517.22620056 994.90002197 516.39927673 995.2913208 C484.59133277 1010.19585465 450.69999224 1019.14845463 415.83140564 1023.14044189 C414.71268148 1023.27252615 414.71268148 1023.27252615 413.57135683 1023.40727878 C404.93970567 1024.31380916 396.32928788 1024.28609452 387.66281128 1024.28088379 C385.93118126 1024.28347153 384.19955184 1024.28648583 382.46792322 1024.28988719 C377.73150487 1024.29791284 372.99510171 1024.29974428 368.25867736 1024.30048466 C363.14107542 1024.30234306 358.02348122 1024.30989448 352.90588379 1024.31661987 C341.72332896 1024.33017379 330.54077772 1024.33622378 319.35821605 1024.34063053 C312.36526015 1024.34339884 305.37230563 1024.34763734 298.37935066 1024.3521347 C278.98929271 1024.36432524 259.59923585 1024.37462387 240.20917416 1024.3780098 C238.96926915 1024.37822936 237.72936415 1024.37844893 236.45188627 1024.37867515 C235.20912926 1024.37889343 233.96637225 1024.3791117 232.68595594 1024.3793366 C230.16795154 1024.37978005 227.64994715 1024.38022661 225.13194275 1024.38067627 C223.25844448 1024.38100841 223.25844448 1024.38100841 221.34709776 1024.38134727 C201.13805032 1024.38528984 180.92903905 1024.40272832 160.72000556 1024.42603579 C139.93408225 1024.44981347 119.14817702 1024.46221462 98.3622399 1024.46337771 C86.70708944 1024.46429106 75.05198608 1024.46995672 63.39684868 1024.48819733 C53.46592996 1024.5036854 43.5350729 1024.508668 33.60414439 1024.50045922 C28.54776012 1024.49658284 23.49149968 1024.49733264 18.43513107 1024.51151657 C-6.70934859 1024.5780225 -31.40264483 1024.09264085 -56.10609436 1018.76544189 C-57.13291321 1018.55049072 -58.15973206 1018.33553955 -59.21766663 1018.11407471 C-62.20642468 1017.47703098 -65.18840747 1016.81634993 -68.16859436 1016.14044189 C-68.99875061 1015.95256104 -69.82890686 1015.76468018 -70.68421936 1015.57110596 C-120.29538915 1004.05129377 -170.0216119 979.31001845 -207.16859436 944.14044189 C-208.51672332 942.9460919 -209.87072948 941.75833632 -211.23109436 940.57794189 C-212.19015686 939.73876221 -212.19015686 939.73876221 -213.16859436 938.88262939 C-214.58027478 937.6529234 -215.99748571 936.42955243 -217.41859436 935.21075439 C-221.65740334 931.53043714 -225.50814775 927.78519269 -229.12171936 923.49200439 C-230.69841445 921.68061041 -232.29659906 919.94954893 -233.96546936 918.22637939 C-256.49725994 894.85760331 -274.43842754 866.48100074 -288.16859436 837.14044189 C-288.73827942 835.93653809 -288.73827942 835.93653809 -289.31947327 834.70831299 C-304.22400711 802.90036902 -313.1766071 769.00902849 -317.16859436 734.14044189 C-317.25665053 733.39462579 -317.3447067 732.64880968 -317.43543124 731.88039309 C-318.34196162 723.24874192 -318.31424698 714.63832413 -318.30903625 705.97184753 C-318.311624 704.24021752 -318.31463829 702.50858809 -318.31803966 700.77695948 C-318.32606531 696.04054113 -318.32789675 691.30413796 -318.32863712 686.56771362 C-318.33049553 681.45011168 -318.33804695 676.33251747 -318.34477234 671.21492004 C-318.35832625 660.03236521 -318.36437624 648.84981398 -318.368783 637.6672523 C-318.37155131 630.67429641 -318.37578981 623.68134188 -318.38028717 616.68838692 C-318.39247771 597.29832897 -318.40277633 577.90827211 -318.40616226 558.51821041 C-318.40638183 557.27830541 -318.40660139 556.03840041 -318.40682761 554.76092253 C-318.40704589 553.51816552 -318.40726417 552.27540851 -318.40748906 550.9949922 C-318.40793252 548.4769878 -318.40837908 545.9589834 -318.40882874 543.440979 C-318.40905017 542.19198016 -318.40927159 540.94298131 -318.40949973 539.65613402 C-318.41344231 519.44708657 -318.43088078 499.23807531 -318.45418826 479.02904182 C-318.47796594 458.2431185 -318.49036708 437.45721328 -318.49153018 416.67127615 C-318.49244352 405.01612569 -318.49810918 393.36102234 -318.51634979 381.70588493 C-318.53183787 371.77496622 -318.53682047 361.84410916 -318.52861169 351.91318064 C-318.5247353 346.85679638 -318.52548511 341.80053593 -318.53966904 336.74416733 C-318.60617497 311.59968767 -318.12079331 286.90639142 -312.79359436 262.20294189 C-312.57864319 261.17612305 -312.36369202 260.1493042 -312.14222717 259.09136963 C-311.50518345 256.10261158 -310.8445024 253.12062879 -310.16859436 250.14044189 C-309.9807135 249.31028564 -309.79283264 248.48012939 -309.59925842 247.62481689 C-298.07944623 198.01364711 -273.33817091 148.28742436 -238.16859436 111.14044189 C-236.97424437 109.79231293 -235.78648879 108.43830677 -234.60609436 107.07794189 C-234.04664124 106.43856689 -233.48718811 105.79919189 -232.91078186 105.14044189 C-231.68107587 103.72876147 -230.4577049 102.31155054 -229.23890686 100.89044189 C-225.5585896 96.65163291 -221.81334515 92.80088851 -217.52015686 89.18731689 C-215.70876288 87.6106218 -213.9777014 86.0124372 -212.25453186 84.34356689 C-188.88575577 61.81177632 -160.50915321 43.87060872 -131.16859436 30.14044189 C-130.36599182 29.76065186 -129.56338928 29.38086182 -128.73646545 28.98956299 C-96.92852149 14.08502914 -63.03718096 5.13242915 -28.16859436 1.14044189 C-27.42277825 1.05238572 -26.67696215 0.96432955 -25.90854555 0.87360501 C-17.27689439 -0.03292537 -8.6664766 -0.00521073 0 0 Z " fill="#151618" transform="translate(318.16859436035156,-0.14044189453125)"/>
<path d="M0 0 C8.15755729 5.90407364 15.27184662 12.99205643 22.34643555 20.11938477 C23.4313577 21.20487272 24.51672371 22.28991719 25.60249329 23.3745575 C28.51533259 26.28682888 31.42201462 29.20517319 34.32753348 32.12474561 C37.37747268 35.18728686 40.43317253 38.24406992 43.48823547 41.30149841 C49.25762074 47.07707084 55.02189389 52.85771697 60.7842949 58.64025682 C67.35116891 65.22957642 73.92380243 71.81313845 80.49689806 78.39625084 C94.00429776 91.92448986 107.50453852 105.45985219 121 119 C119.16129591 122.9672454 116.57419248 125.72835575 113.51220703 128.79418945 C112.95263306 129.36208694 112.39305908 129.92998444 111.81652832 130.51509094 C109.96905453 132.38662112 108.1140442 134.25043948 106.2578125 136.11328125 C104.96980183 137.41025748 103.68186956 138.70731158 102.39401245 140.00444031 C99.69591813 142.71901243 96.99347124 145.42917018 94.28857422 148.13696289 C90.81739682 151.61354044 87.36268448 155.10600617 83.91168404 158.60259724 C81.25901525 161.28494145 78.59523014 163.95602836 75.92818832 166.62407494 C74.64901856 167.90746146 73.3739865 169.19498557 72.10315323 170.48662758 C70.32917833 172.28733433 68.54022621 174.07169825 66.74658203 175.8527832 C66.22176239 176.39243713 65.69694275 176.93209106 65.15621948 177.48809814 C63.66946411 178.94526672 63.66946411 178.94526672 61 181 C57.57763283 180.6899208 55.89191981 179.26401496 53.51983643 176.88059998 C52.8496196 176.21450714 52.17940277 175.54841431 51.48887634 174.86213684 C50.7645491 174.12702377 50.04022186 173.39191071 49.29394531 172.63452148 C48.52282913 171.86384338 47.75171295 171.09316528 46.95722961 170.2991333 C44.40702084 167.74683244 41.86760582 165.18406526 39.328125 162.62109375 C37.56329668 160.85067101 35.7978054 159.0809089 34.03167725 157.31178284 C29.85779426 153.12761092 25.6906449 148.93681067 21.52669883 144.74275595 C16.32020051 139.49943091 11.10333608 134.26645743 5.88671875 129.03320312 C-3.41720523 119.69709332 -12.71185565 110.35180714 -22 101 C-27.82457767 105.83639309 -33.17516043 111.03939152 -38.51538086 116.40185547 C-39.44299225 117.32932083 -40.37060364 118.25678619 -41.32632446 119.21235657 C-43.85079988 121.73654695 -46.3721962 124.26379232 -48.89302135 126.79162741 C-51.53507659 129.43996528 -54.17999419 132.08544145 -56.82460022 134.73123169 C-61.82357153 139.7333019 -66.81998984 144.73791407 -71.81547982 149.74346077 C-77.50641176 155.44559874 -83.20020856 161.14487239 -88.89423931 166.8439157 C-100.59933415 178.55944229 -112.30085365 190.27853316 -124 202 C-119.69682388 207.14249007 -115.1865617 211.9521007 -110.43408203 216.67944336 C-109.3354911 217.77825333 -109.3354911 217.77825333 -108.21470642 218.89926147 C-105.81477343 221.29850275 -103.41132745 223.69419129 -101.0078125 226.08984375 C-99.3346507 227.76113873 -97.66171085 229.43265592 -95.98898315 231.10438538 C-91.60182061 235.48774351 -87.21166243 239.86808925 -82.82086182 244.24780273 C-78.3344815 248.72392418 -73.85095708 253.20290426 -69.3671875 257.68164062 C-60.58090901 266.45721843 -51.7914614 275.22961471 -43 284 C-44.42835757 288.663656 -46.33700248 292.94895992 -48.53173828 297.29052734 C-48.88315887 297.99366058 -49.23457947 298.69679382 -49.59664917 299.42123413 C-50.75075157 301.72805369 -51.91048297 304.03199289 -53.0703125 306.3359375 C-53.87493258 307.94144469 -54.67919791 309.54712971 -55.48312378 311.15298462 C-57.59373272 315.36658854 -59.70913668 319.57776712 -61.82556152 323.78845215 C-63.98687951 328.09058148 -66.14363562 332.39499628 -68.30078125 336.69921875 C-72.52940238 345.13505058 -76.76309468 353.56832623 -81 362 C-77.01829532 358.9440424 -73.44726984 355.58436576 -69.91537952 352.03004742 C-69.31829873 351.43322168 -68.72121794 350.83639594 -68.10604379 350.22148457 C-66.10255115 348.21763072 -64.10266961 346.21021145 -62.10273743 344.20280457 C-60.65383796 342.75219307 -59.20471349 341.3018063 -57.75538319 339.85162526 C-53.77039752 335.86304938 -49.78852845 331.87137465 -45.80712998 327.87921846 C-41.51367782 323.5752889 -37.21730326 319.27427853 -32.92121887 314.97297668 C-25.95903056 308.00170426 -18.9981636 301.02911503 -12.03843686 294.05538528 C-0.28752386 282.2808623 11.468049 270.51100059 23.2251375 258.74264428 C27.75023762 254.2131747 32.27520411 249.68357162 36.80019093 245.15398884 C37.3029219 244.65074933 37.80565288 244.14750983 38.32361813 243.62902064 C50.28951392 231.65099203 62.25429292 219.67184818 74.21850586 207.69213867 C74.74196847 207.1680009 75.26543107 206.64386313 75.80475618 206.1038424 C88.01498509 193.87782525 100.22414585 181.65074308 112.43096924 169.42132568 C112.95581383 168.89550982 113.48065843 168.36969395 114.02140741 167.82794427 C118.25187596 163.58962907 122.48230678 159.35127622 126.71272781 155.1129136 C144.16232309 137.63062037 161.61696462 120.15337902 179.07741748 102.68192956 C181.5442873 100.21349506 184.01109223 97.74499572 186.47785378 95.27645302 C186.96331601 94.79064201 187.44877825 94.304831 187.94895146 93.80429845 C195.75512924 85.99218731 203.55586295 78.17466179 211.35447067 70.35499444 C219.19567062 62.49280994 227.04235749 54.63612925 234.89431872 46.78469034 C239.14642177 42.53252427 243.39603062 38.27794087 247.63909149 34.01675034 C251.52564418 30.11368888 255.41909607 26.21764901 259.31808183 22.32700876 C260.7251743 20.92048901 262.12973945 19.51143525 263.53146371 18.09956553 C276.12883845 5.41594567 287.2810703 -5.14271252 306.0625 -5.3125 C322.55293846 -5.32841059 331.96353725 1.82849946 343.265625 13.0703125 C345.93618893 15.74626533 348.59374507 18.43485448 351.25 21.125 C352.61150781 22.49656182 353.97348364 23.8676592 355.3359375 25.23828125 C358.33508095 28.2568937 361.32976934 31.27984327 364.32037354 34.30691528 C368.41804945 38.43742443 372.54573304 42.53763992 376.67929077 46.63218689 C377.823422 47.76605534 378.9675299 48.89994733 380.11161804 50.03385925 C380.71745916 50.63427221 381.32330029 51.23468517 381.94750023 51.85329247 C395.9334169 65.71508901 409.89905843 79.59716518 423.85341454 93.49072933 C431.91559855 101.51684298 439.98423738 109.53626157 448.06835938 117.5402832 C455.13389649 124.53584923 462.18686336 131.54381132 469.22528327 138.5666638 C472.94501493 142.27731088 476.67054811 145.98165646 480.41126633 149.67115593 C483.93476667 153.14679349 487.44110353 156.63889318 490.93551826 160.1437645 C492.21326307 161.4195998 493.49691829 162.68955069 494.78717232 163.95273399 C504.68375889 173.65193073 513.93791231 184.47335309 514.29296875 199.05444336 C514.44368955 217.4442651 507.45265341 228.68233369 494.84121704 241.53973389 C491.9421426 244.46802409 489.02390372 247.37667696 486.10400391 250.28417969 C484.49283371 251.89942121 482.88230106 253.51529887 481.27235413 255.13175964 C476.92183506 259.49589012 472.56195855 263.85055595 468.19986391 268.2031126 C463.62363801 272.77171116 459.05477257 277.34766135 454.48471069 281.92242432 C446.32134089 290.09159051 438.15045417 298.25319113 429.97654586 306.41181114 C422.58070537 313.79424607 415.19277155 321.18451694 407.81054688 328.58056641 C399.21486124 337.19234201 390.6141194 345.79900599 382.00595987 354.39831662 C377.45756595 358.94204586 372.91119381 363.48774829 368.37010574 368.03878021 C364.10049748 372.31708529 359.82355784 376.58792607 355.54096794 380.85323524 C353.97515062 382.4151025 352.41184955 383.97949729 350.85133171 385.54665947 C326.23751436 410.25555771 326.23751436 410.25555771 306.9375 410.4375 C306.09848145 410.44773193 305.25946289 410.45796387 304.39501953 410.46850586 C293.57658358 410.31698418 283.87229858 406.25690673 275.80078125 399.03125 C265.50522552 388.20620855 262.43701939 376.65317388 262.73046875 362.0390625 C263.52026949 345.3637622 277.00501879 333.55328747 288.1171875 322.54223633 C289.42934087 321.23093094 290.74083051 319.91896111 292.05171204 318.60638428 C295.58369915 315.07354247 299.12480594 311.54997563 302.66772079 308.02809739 C306.37935033 304.33532308 310.08238885 300.63395351 313.78637695 296.93351746 C320.78892003 289.94026898 327.79906962 282.95469798 334.81203747 275.97190541 C342.80110212 268.01646552 350.78156892 260.05242424 358.76135254 252.08767664 C375.16473804 235.71558156 391.57880187 219.35422762 408 203 C403.69682388 197.85750993 399.1865617 193.0478993 394.43408203 188.32055664 C393.70168808 187.58801666 392.96929413 186.85547668 392.21470642 186.10073853 C389.81477343 183.70149725 387.41132745 181.30580871 385.0078125 178.91015625 C383.3346507 177.23886127 381.66171085 175.56734408 379.98898315 173.89561462 C375.60182061 169.51225649 371.21166243 165.13191075 366.82086182 160.75219727 C362.3344815 156.27607582 357.85095708 151.79709574 353.3671875 147.31835938 C344.58090901 138.54278157 335.7914614 129.77038529 327 121 C328.42835757 116.336344 330.33700248 112.05104008 332.53173828 107.70947266 C332.88315887 107.00633942 333.23457947 106.30320618 333.59664917 105.57876587 C334.75075157 103.27194631 335.91048297 100.96800711 337.0703125 98.6640625 C337.87493258 97.05855531 338.67919791 95.45287029 339.48312378 93.84701538 C341.59373272 89.63341146 343.70913668 85.42223288 345.82556152 81.21154785 C347.98687951 76.90941852 350.14363562 72.60500372 352.30078125 68.30078125 C356.52940238 59.86494942 360.76309468 51.43167377 365 43 C362.85002913 43 361.49046673 45.38967702 360.05039847 46.82630149 C359.48341848 47.39705188 358.9164385 47.96780227 358.3322773 48.55584812 C357.43136577 49.45682647 357.43136577 49.45682647 356.512254 50.37600639 C354.47267087 52.41696765 352.43671084 54.46150681 350.40066528 56.5059967 C348.93530701 57.97378015 347.46972394 59.44133919 346.00393379 60.90869135 C342.80308674 64.11393233 339.60385628 67.32077566 336.40581322 70.52881432 C331.20329882 75.74758206 325.99739454 80.96295976 320.7910614 86.17791748 C313.72301921 93.25825572 306.65624963 100.33986112 299.59051292 107.42249986 C287.65848024 119.3829937 275.72126904 131.33830852 263.78228361 143.29186172 C261.24268506 145.83457455 258.70313714 148.37733793 256.16358769 150.92009979 C255.40413631 151.6805112 255.40413631 151.6805112 254.62934248 152.45628445 C253.60332064 153.48360372 252.57729917 154.51092337 251.55127809 155.53824339 C250.52141758 156.56940635 249.49155558 157.60056781 248.4616921 158.6317278 C236.30762048 170.80110579 224.15442879 182.97136226 212.00195312 195.14233398 C211.47001552 195.67507751 210.93807791 196.20782104 210.39002099 196.75670831 C193.15421461 214.01870612 175.92365436 231.28593089 158.69529497 248.55536084 C140.98634478 266.30645063 123.27070518 284.05083995 105.54718504 301.78738291 C103.04261188 304.29380894 100.53812234 306.80031852 98.03368759 309.30688286 C97.54079102 309.80019562 97.04789446 310.29350838 96.54006163 310.80177001 C88.61347019 318.73547606 80.69406088 326.67631408 72.77741947 334.61994746 C64.81432821 342.6099243 56.84388706 350.59251117 48.86638649 358.56810582 C44.54607118 362.88784355 40.22908799 367.21077959 35.92082405 371.5425396 C31.97390647 375.51084862 28.01780492 379.4697581 24.05430518 383.42150312 C22.62466532 384.85014893 21.19838847 386.28217005 19.77590872 387.71794523 C7.47118773 400.13131806 -3.75932925 410.18242286 -21.9375 410.375 C-42.36176506 410.15880422 -53.2232922 398.21683074 -66.8125 384.375 C-68.21739034 382.95502772 -69.62298449 381.53575142 -71.02929688 380.1171875 C-74.12243296 376.99485295 -77.20884589 373.86605259 -80.28913879 370.73104858 C-84.39161378 366.58016628 -88.53585385 362.47100319 -92.67929077 358.36108398 C-93.82341884 357.22575256 -94.9675269 356.09040098 -96.11161804 354.95503235 C-97.02037972 354.05324973 -97.02037972 354.05324973 -97.94750023 353.13324928 C-111.93094347 339.25617591 -125.89702275 325.36173529 -139.85341454 311.4574585 C-147.91694507 303.42485058 -155.98602554 295.39796891 -164.06835938 287.38427734 C-171.13199845 280.38059738 -178.18488801 273.36629571 -185.22528327 266.3392477 C-188.94627829 262.62604212 -192.67228439 258.91821454 -196.41126633 255.22311401 C-199.93254007 251.74283959 -203.43917372 248.2484401 -206.93551826 244.74312782 C-208.21413836 243.46614556 -209.49782993 242.19421583 -210.78717232 240.92806053 C-221.39393792 230.50262738 -229.91528363 220.26467354 -230.29272461 204.71850586 C-230.42090203 189.52869058 -226.03090643 180.22989638 -215.51164532 169.25437641 C-214.26997827 167.99936257 -213.02306224 166.74952575 -211.77165222 165.50422668 C-211.078523 164.80656635 -210.38539379 164.10890602 -209.67126065 163.39010447 C-207.37172008 161.07800938 -205.06519944 158.77301381 -202.75854492 156.46801758 C-201.09848406 154.80196607 -199.43883196 153.13550719 -197.77955627 151.46867371 C-193.2884366 146.9599461 -188.79090455 142.45766893 -184.29161239 137.95709825 C-181.00502459 134.66884636 -177.72051167 131.37852799 -174.43619502 128.08800792 C-165.59804405 119.23327443 -156.75536437 110.38308971 -147.90820488 101.53735725 C-147.40700068 101.03623297 -146.90579649 100.53510869 -146.3894043 100.01879883 C-145.8875814 99.51705769 -145.3857585 99.01531656 -144.86872885 98.49837115 C-136.73285867 90.36331421 -128.60701855 82.2183197 -120.48566004 74.06877784 C-112.12861809 65.68296568 -103.76409756 57.30467718 -95.39179498 48.93410033 C-90.69867219 44.24163977 -86.00882965 39.54598431 -81.32665062 34.84259987 C-76.92369462 30.42024641 -72.51119157 26.00764481 -68.09126854 21.60225105 C-66.47456955 19.98763901 -64.86125399 18.36963065 -63.25166702 16.74792862 C-45.49144163 -1.13724809 -24.91842035 -13.66229878 0 0 Z " fill="#FEFEFE" transform="translate(370,308)"/>
<path d="M0 0 C8.15755729 5.90407364 15.27184662 12.99205643 22.34643555 20.11938477 C23.4313577 21.20487272 24.51672371 22.28991719 25.60249329 23.3745575 C28.51533259 26.28682888 31.42201462 29.20517319 34.32753348 32.12474561 C37.37747268 35.18728686 40.43317253 38.24406992 43.48823547 41.30149841 C49.25762074 47.07707084 55.02189389 52.85771697 60.7842949 58.64025682 C67.35116891 65.22957642 73.92380243 71.81313845 80.49689806 78.39625084 C94.00429776 91.92448986 107.50453852 105.45985219 121 119 C119.16129591 122.9672454 116.57419248 125.72835575 113.51220703 128.79418945 C112.95263306 129.36208694 112.39305908 129.92998444 111.81652832 130.51509094 C109.96905453 132.38662112 108.1140442 134.25043948 106.2578125 136.11328125 C104.96980183 137.41025748 103.68186956 138.70731158 102.39401245 140.00444031 C99.69591813 142.71901243 96.99347124 145.42917018 94.28857422 148.13696289 C90.81739682 151.61354044 87.36268448 155.10600617 83.91168404 158.60259724 C81.25901525 161.28494145 78.59523014 163.95602836 75.92818832 166.62407494 C74.64901856 167.90746146 73.3739865 169.19498557 72.10315323 170.48662758 C70.32917833 172.28733433 68.54022621 174.07169825 66.74658203 175.8527832 C66.22176239 176.39243713 65.69694275 176.93209106 65.15621948 177.48809814 C63.66946411 178.94526672 63.66946411 178.94526672 61 181 C57.57763283 180.6899208 55.89191981 179.26401496 53.51983643 176.88059998 C52.8496196 176.21450714 52.17940277 175.54841431 51.48887634 174.86213684 C50.7645491 174.12702377 50.04022186 173.39191071 49.29394531 172.63452148 C48.52282913 171.86384338 47.75171295 171.09316528 46.95722961 170.2991333 C44.40702084 167.74683244 41.86760582 165.18406526 39.328125 162.62109375 C37.56329668 160.85067101 35.7978054 159.0809089 34.03167725 157.31178284 C29.85779426 153.12761092 25.6906449 148.93681067 21.52669883 144.74275595 C16.32020051 139.49943091 11.10333608 134.26645743 5.88671875 129.03320312 C-3.41720523 119.69709332 -12.71185565 110.35180714 -22 101 C-27.82457767 105.83639309 -33.17516043 111.03939152 -38.51538086 116.40185547 C-39.44299225 117.32932083 -40.37060364 118.25678619 -41.32632446 119.21235657 C-43.85079988 121.73654695 -46.3721962 124.26379232 -48.89302135 126.79162741 C-51.53507659 129.43996528 -54.17999419 132.08544145 -56.82460022 134.73123169 C-61.82357153 139.7333019 -66.81998984 144.73791407 -71.81547982 149.74346077 C-77.50641176 155.44559874 -83.20020856 161.14487239 -88.89423931 166.8439157 C-100.59933415 178.55944229 -112.30085365 190.27853316 -124 202 C-119.69682388 207.14249007 -115.1865617 211.9521007 -110.43408203 216.67944336 C-109.3354911 217.77825333 -109.3354911 217.77825333 -108.21470642 218.89926147 C-105.81477343 221.29850275 -103.41132745 223.69419129 -101.0078125 226.08984375 C-99.3346507 227.76113873 -97.66171085 229.43265592 -95.98898315 231.10438538 C-91.60182061 235.48774351 -87.21166243 239.86808925 -82.82086182 244.24780273 C-78.3344815 248.72392418 -73.85095708 253.20290426 -69.3671875 257.68164062 C-60.58090901 266.45721843 -51.7914614 275.22961471 -43 284 C-44.42835757 288.663656 -46.33700248 292.94895992 -48.53173828 297.29052734 C-48.88315887 297.99366058 -49.23457947 298.69679382 -49.59664917 299.42123413 C-50.75075157 301.72805369 -51.91048297 304.03199289 -53.0703125 306.3359375 C-53.87493258 307.94144469 -54.67919791 309.54712971 -55.48312378 311.15298462 C-57.59373272 315.36658854 -59.70913668 319.57776712 -61.82556152 323.78845215 C-63.98687951 328.09058148 -66.14363562 332.39499628 -68.30078125 336.69921875 C-72.52940238 345.13505058 -76.76309468 353.56832623 -81 362 C-77.00995335 358.93741794 -73.42969364 355.56961171 -69.8874464 352.01049423 C-69.28736964 351.41157132 -68.68729289 350.8126484 -68.06903198 350.19557631 C-66.0554562 348.18465097 -64.0454721 346.17017383 -62.03544617 344.15570068 C-60.57941463 342.70010517 -59.12316338 341.2447294 -57.66671115 339.78955483 C-53.66240232 335.78748486 -49.66122305 331.78229869 -45.66053951 327.77660513 C-41.34678387 323.45853647 -37.03014433 319.14335249 -32.71385193 314.82781982 C-25.23505989 307.34955248 -17.75808572 299.86947207 -10.28238487 292.38811493 C-2.441922 284.54173499 5.39957409 276.69639001 13.24245262 268.85242462 C13.73010299 268.36470551 14.21775336 267.87698641 14.72018101 267.37448793 C17.19671734 264.89761327 19.67327214 262.42075708 22.14983406 259.94390801 C39.69116429 242.40047738 57.23017492 224.85472942 74.76782227 207.30761719 C91.80538496 190.26087011 108.84399772 173.21517371 125.8840332 156.17089844 C126.67190828 155.38282607 126.67190828 155.38282607 127.47570002 154.57883305 C132.75047924 149.30273531 138.02527982 144.02665892 143.30009604 138.75059817 C154.04549927 128.00265874 164.79075995 117.2545768 175.53593445 106.50640869 C176.0299801 106.01222575 176.52402575 105.51804281 177.03304248 105.00888463 C210.02441634 72.00831014 243.01245685 39.00440364 276 6 C276.66 6.33 277.32 6.66 278 7 C158.87 126.13 39.74 245.26 -83 368 C-84.65 366.35 -86.3 364.7 -88 363 C-89.87958029 361.13213722 -91.75994462 359.26509302 -93.6413269 357.39904785 C-94.77695577 356.27221552 -95.9125647 355.14536309 -97.04815674 354.01849365 C-97.6494062 353.4218969 -98.25065567 352.82530014 -98.87012482 352.21062469 C-112.74898143 338.43814914 -126.61046313 324.64829526 -140.46226311 310.84860992 C-148.4652596 302.87653555 -156.4738053 294.91018805 -164.49560547 286.95703125 C-171.50650802 280.00609018 -178.50665846 273.04452579 -185.49431622 266.07021475 C-189.18736597 262.384954 -192.88542418 258.70507145 -196.59646225 255.03791809 C-200.09147355 251.58390986 -203.57183869 248.1157744 -207.04191971 244.63672638 C-208.31086449 243.36941927 -209.58487974 242.10716353 -210.86454773 240.85068512 C-221.44371942 230.4537597 -229.91640796 220.21836434 -230.29272461 204.71850586 C-230.42090203 189.52869058 -226.03090643 180.22989638 -215.51164532 169.25437641 C-214.26997827 167.99936257 -213.02306224 166.74952575 -211.77165222 165.50422668 C-211.078523 164.80656635 -210.38539379 164.10890602 -209.67126065 163.39010447 C-207.37172008 161.07800938 -205.06519944 158.77301381 -202.75854492 156.46801758 C-201.09848406 154.80196607 -199.43883196 153.13550719 -197.77955627 151.46867371 C-193.2884366 146.9599461 -188.79090455 142.45766893 -184.29161239 137.95709825 C-181.00502459 134.66884636 -177.72051167 131.37852799 -174.43619502 128.08800792 C-165.59804405 119.23327443 -156.75536437 110.38308971 -147.90820488 101.53735725 C-147.40700068 101.03623297 -146.90579649 100.53510869 -146.3894043 100.01879883 C-145.8875814 99.51705769 -145.3857585 99.01531656 -144.86872885 98.49837115 C-136.73285867 90.36331421 -128.60701855 82.2183197 -120.48566004 74.06877784 C-112.12861809 65.68296568 -103.76409756 57.30467718 -95.39179498 48.93410033 C-90.69867219 44.24163977 -86.00882965 39.54598431 -81.32665062 34.84259987 C-76.92369462 30.42024641 -72.51119157 26.00764481 -68.09126854 21.60225105 C-66.47456955 19.98763901 -64.86125399 18.36963065 -63.25166702 16.74792862 C-45.49144163 -1.13724809 -24.91842035 -13.66229878 0 0 Z " fill="#FEFEFE" transform="translate(370,308)"/>
<path d="M0 0 C0.70864763 0.70961915 1.41729527 1.4192383 2.14741707 2.15036106 C4.97048594 4.97329628 7.80487303 7.78474586 10.6413269 10.59422302 C11.77695893 11.71959239 12.91256768 12.84498523 14.04815674 13.97039795 C14.6494062 14.56621925 15.25065567 15.16204056 15.87012482 15.77591705 C29.7514558 29.53311467 43.61249873 43.31060502 57.46226311 57.0995779 C65.46391315 65.06515821 73.47201701 73.02404262 81.49560547 80.9675293 C88.50840633 87.91035616 95.5086337 94.865581 102.49431622 101.83569676 C106.18610279 105.51839927 109.88368747 109.19479986 113.59646225 112.85635185 C117.09370077 116.30572297 120.57376808 119.77155864 124.04191971 123.25016594 C125.30998922 124.51632615 126.58396793 125.77660339 127.86454773 127.03010941 C137.73418987 136.70139105 146.93904492 147.5198662 147.29296875 162.05444336 C147.44368955 180.4442651 140.45265341 191.68233369 127.84121704 204.53973389 C124.9421426 207.46802409 122.02390372 210.37667696 119.10400391 213.28417969 C117.49283371 214.89942121 115.88230106 216.51529887 114.27235413 218.13175964 C109.92183506 222.49589012 105.56195855 226.85055595 101.19986391 231.2031126 C96.62363801 235.77171116 92.05477257 240.34766135 87.48471069 244.92242432 C79.32134089 253.09159051 71.15045417 261.25319113 62.97654586 269.41181114 C55.58070537 276.79424607 48.19277155 284.18451694 40.81054688 291.58056641 C32.21486124 300.19234201 23.6141194 308.79900599 15.00595987 317.39831662 C10.45756595 321.94204586 5.91119381 326.48774829 1.37010574 331.03878021 C-2.89950252 335.31708529 -7.17644216 339.58792607 -11.45903206 343.85323524 C-13.02484938 345.4151025 -14.58815045 346.97949729 -16.14866829 348.54665947 C-40.76248564 373.25555771 -40.76248564 373.25555771 -60.0625 373.4375 C-60.90151855 373.44773193 -61.74053711 373.45796387 -62.60498047 373.46850586 C-73.42341642 373.31698418 -83.12770142 369.25690673 -91.19921875 362.03125 C-101.49477448 351.20620855 -104.56298061 339.65317388 -104.26953125 325.0390625 C-103.47973051 308.3637622 -89.99498121 296.55328747 -78.8828125 285.54223633 C-77.57065913 284.23093094 -76.25916949 282.91896111 -74.94828796 281.60638428 C-71.41630085 278.07354247 -67.87519406 274.54997563 -64.33227921 271.02809739 C-60.62064967 267.33532308 -56.91761115 263.63395351 -53.21362305 259.93351746 C-46.21107997 252.94026898 -39.20093038 245.95469798 -32.18796253 238.97190541 C-24.19889788 231.01646552 -16.21843108 223.05242424 -8.23864746 215.08767664 C8.16473804 198.71558156 24.57880187 182.35422762 41 166 C36.69682388 160.85750993 32.1865617 156.0478993 27.43408203 151.32055664 C26.3354911 150.22174667 26.3354911 150.22174667 25.21470642 149.10073853 C22.81477343 146.70149725 20.41132745 144.30580871 18.0078125 141.91015625 C16.3346507 140.23886127 14.66171085 138.56734408 12.98898315 136.89561462 C8.60182061 132.51225649 4.21166243 128.13191075 -0.17913818 123.75219727 C-4.6655185 119.27607582 -9.14904292 114.79709574 -13.6328125 110.31835938 C-22.41909099 101.54278157 -31.2085386 92.77038529 -40 84 C-38.58060342 79.36655729 -36.68916082 75.11368572 -34.5 70.8046875 C-33.97768799 69.76444427 -33.97768799 69.76444427 -33.44482422 68.70318604 C-32.69253958 67.20619425 -31.9384088 65.71012906 -31.18261719 64.21490479 C-29.98510712 61.84553322 -28.79269814 59.47365609 -27.6015625 57.10107422 C-24.64306723 51.21075068 -21.67587778 45.32481728 -18.70898438 39.4387207 C-16.199145 34.45855574 -13.69261454 29.47675225 -11.19042969 24.49273682 C-10.01824909 22.16129702 -8.84125794 19.83232869 -7.6640625 17.50341797 C-6.9424705 16.06750231 -6.22110437 14.63147311 -5.5 13.1953125 C-5.01055908 12.23192963 -5.01055908 12.23192963 -4.51123047 11.24908447 C-2.67377954 7.57503826 -1.20309925 3.92736711 0 0 Z " fill="#979798" transform="translate(737,345)"/>
<path d="M0 0 C0.66 0.33 1.32 0.66 2 1 C-117.13 120.13 -236.26 239.26 -359 362 C-359.66 361.34 -360.32 360.68 -361 360 C-360.30420531 359.37499767 -359.60841061 358.74999533 -358.89153123 358.10605353 C-350.43981409 350.46439049 -342.35392344 342.49242038 -334.30755615 334.42781067 C-332.85785718 332.97854862 -331.40793811 331.5295067 -329.95782018 330.08066386 C-326.00354037 326.12860512 -322.05236019 322.17346048 -318.10170913 318.21777475 C-313.82967127 313.94139805 -309.55472275 309.66793272 -305.28013611 305.394104 C-297.8844095 297.99890046 -290.49049069 290.60189275 -283.09786224 283.2035923 C-275.34971488 275.44951548 -267.60052317 267.69648478 -259.8499527 259.94482994 C-259.36694255 259.46175105 -258.8839324 258.97867216 -258.38628558 258.48095452 C-255.93303211 256.02736269 -253.47976014 253.57378935 -251.02648106 251.12022313 C-233.67759812 233.76924319 -216.33103172 216.415949 -198.98583984 199.0612793 C-182.14164104 182.20788708 -165.29638545 165.35555228 -148.44970703 148.50463867 C-147.66993623 147.72467058 -147.66993623 147.72467058 -146.87441249 146.92894556 C-141.65360084 141.70681533 -136.43276779 136.48470648 -131.21191908 131.2626133 C-120.5776992 120.62585762 -109.94362208 109.98895925 -99.30963135 99.35197449 C-98.82076319 98.86296904 -98.33189504 98.3739636 -97.8282127 97.87013981 C-65.2164157 65.24915166 -32.60795629 32.62482728 0 0 Z " fill="#D1D1D2" transform="translate(646,314)"/>
</svg>
