<svg xmlns="http://www.w3.org/2000/svg" version="1.1" xmlns:xlink="http://www.w3.org/1999/xlink" xmlns:svgjs="http://svgjs.dev/svgjs" viewBox="0 0 800 800" opacity="1"><defs><linearGradient gradientTransform="rotate(270)" x1="50%" y1="0%" x2="50%" y2="100%" id="sssquiggly-grad"><stop stop-color="hsl(230, 55%, 50%)" stop-opacity="1" offset="0%"></stop><stop stop-color="hsl(230, 55%, 70%)" stop-opacity="1" offset="100%"></stop></linearGradient></defs><g stroke-width="2" stroke="url(#sssquiggly-grad)" fill="none" stroke-linecap="round" transform="matrix(1,0,0,1,-5,299.4796447753906)"><path d="M10,10C24.583333333333332,11.875,48.75,23.791666666666668,80,19C111.25,14.208333333333332,126.66666666666666,-13,160,-13C193.33333333333334,-13,206.66666666666666,17.333333333333332,240,19C273.3333333333333,20.666666666666668,286.6666666666667,-6.041666666666667,320,-5C353.3333333333333,-3.958333333333333,366.6666666666667,24,400,24C433.3333333333333,24,446.6666666666667,-5.208333333333333,480,-5C513.3333333333334,-4.791666666666667,526.6666666666666,23.958333333333332,560,25C593.3333333333334,26.041666666666668,606.6666666666666,-0.625,640,0C673.3333333333334,0.625,686.6666666666666,26.958333333333332,720,28C753.3333333333334,29.041666666666668,783.3333333333334,9.791666666666668,800,5"></path><path d="M10,10C24.583333333333332,11.875,48.75,23.791666666666668,80,19C111.25,14.208333333333332,126.66666666666666,-13,160,-13C193.33333333333334,-13,206.66666666666666,17.333333333333332,240,19C273.3333333333333,20.666666666666668,286.6666666666667,-6.041666666666667,320,-5C353.3333333333333,-3.958333333333333,366.6666666666667,24,400,24C433.3333333333333,24,446.6666666666667,-5.208333333333333,480,-5C513.3333333333334,-4.791666666666667,526.6666666666666,23.958333333333332,560,25C593.3333333333334,26.041666666666668,606.6666666666666,-0.625,640,0C673.3333333333334,0.625,686.6666666666666,26.958333333333332,720,28C753.3333333333334,29.041666666666668,783.3333333333334,9.791666666666668,800,5" transform="matrix(1,0,0,1,0,186)"></path><path d="M10,10C24.583333333333332,11.875,48.75,23.791666666666668,80,19C111.25,14.208333333333332,126.66666666666666,-13,160,-13C193.33333333333334,-13,206.66666666666666,17.333333333333332,240,19C273.3333333333333,20.666666666666668,286.6666666666667,-6.041666666666667,320,-5C353.3333333333333,-3.958333333333333,366.6666666666667,24,400,24C433.3333333333333,24,446.6666666666667,-5.208333333333333,480,-5C513.3333333333334,-4.791666666666667,526.6666666666666,23.958333333333332,560,25C593.3333333333334,26.041666666666668,606.6666666666666,-0.625,640,0C673.3333333333334,0.625,686.6666666666666,26.958333333333332,720,28C753.3333333333334,29.041666666666668,783.3333333333334,9.791666666666668,800,5" transform="matrix(1,0,0,1,0,155)"></path><path d="M10,10C24.583333333333332,11.875,48.75,23.791666666666668,80,19C111.25,14.208333333333332,126.66666666666666,-13,160,-13C193.33333333333334,-13,206.66666666666666,17.333333333333332,240,19C273.3333333333333,20.666666666666668,286.6666666666667,-6.041666666666667,320,-5C353.3333333333333,-3.958333333333333,366.6666666666667,24,400,24C433.3333333333333,24,446.6666666666667,-5.208333333333333,480,-5C513.3333333333334,-4.791666666666667,526.6666666666666,23.958333333333332,560,25C593.3333333333334,26.041666666666668,606.6666666666666,-0.625,640,0C673.3333333333334,0.625,686.6666666666666,26.958333333333332,720,28C753.3333333333334,29.041666666666668,783.3333333333334,9.791666666666668,800,5" transform="matrix(1,0,0,1,0,124)"></path><path d="M10,10C24.583333333333332,11.875,48.75,23.791666666666668,80,19C111.25,14.208333333333332,126.66666666666666,-13,160,-13C193.33333333333334,-13,206.66666666666666,17.333333333333332,240,19C273.3333333333333,20.666666666666668,286.6666666666667,-6.041666666666667,320,-5C353.3333333333333,-3.958333333333333,366.6666666666667,24,400,24C433.3333333333333,24,446.6666666666667,-5.208333333333333,480,-5C513.3333333333334,-4.791666666666667,526.6666666666666,23.958333333333332,560,25C593.3333333333334,26.041666666666668,606.6666666666666,-0.625,640,0C673.3333333333334,0.625,686.6666666666666,26.958333333333332,720,28C753.3333333333334,29.041666666666668,783.3333333333334,9.791666666666668,800,5" transform="matrix(1,0,0,1,0,93)"></path><path d="M10,10C24.583333333333332,11.875,48.75,23.791666666666668,80,19C111.25,14.208333333333332,126.66666666666666,-13,160,-13C193.33333333333334,-13,206.66666666666666,17.333333333333332,240,19C273.3333333333333,20.666666666666668,286.6666666666667,-6.041666666666667,320,-5C353.3333333333333,-3.958333333333333,366.6666666666667,24,400,24C433.3333333333333,24,446.6666666666667,-5.208333333333333,480,-5C513.3333333333334,-4.791666666666667,526.6666666666666,23.958333333333332,560,25C593.3333333333334,26.041666666666668,606.6666666666666,-0.625,640,0C673.3333333333334,0.625,686.6666666666666,26.958333333333332,720,28C753.3333333333334,29.041666666666668,783.3333333333334,9.791666666666668,800,5" transform="matrix(1,0,0,1,0,62)"></path><path d="M10,10C24.583333333333332,11.875,48.75,23.791666666666668,80,19C111.25,14.208333333333332,126.66666666666666,-13,160,-13C193.33333333333334,-13,206.66666666666666,17.333333333333332,240,19C273.3333333333333,20.666666666666668,286.6666666666667,-6.041666666666667,320,-5C353.3333333333333,-3.958333333333333,366.6666666666667,24,400,24C433.3333333333333,24,446.6666666666667,-5.208333333333333,480,-5C513.3333333333334,-4.791666666666667,526.6666666666666,23.958333333333332,560,25C593.3333333333334,26.041666666666668,606.6666666666666,-0.625,640,0C673.3333333333334,0.625,686.6666666666666,26.958333333333332,720,28C753.3333333333334,29.041666666666668,783.3333333333334,9.791666666666668,800,5" transform="matrix(1,0,0,1,0,31)"></path></g></svg>